<svg width="25" height="21" viewBox="0 0 25 21" fill="none" xmlns="http://www.w3.org/2000/svg">
<path d="M11.3354 0.64825C11.6602 -0.21608 12.8828 -0.216079 13.2076 0.64825L15.5079 6.76982C15.6544 7.1598 16.0274 7.41807 16.444 7.41807H23.5413C24.5447 7.41807 24.9229 8.73102 24.0732 9.26484L18.5935 12.7074C18.1911 12.9601 18.0222 13.4611 18.1894 13.9059L20.339 19.6265C20.6758 20.5228 19.6817 21.3344 18.8709 20.825L12.8034 17.0132C12.4782 16.8089 12.0647 16.8089 11.7395 17.0132L5.67206 20.825C4.86127 21.3344 3.8672 20.5228 4.204 19.6265L6.35361 13.9059C6.52074 13.4611 6.35182 12.9601 5.94948 12.7074L0.469743 9.26484C-0.379969 8.73102 -0.00176978 7.41807 1.00171 7.41807H8.09901C8.51561 7.41807 8.88857 7.1598 9.03511 6.76982L11.3354 0.64825Z" fill="#F7FF00"/>
</svg>
